<?xml version="1.0" encoding="utf-8"?>
<!-- Generator: Adobe Illustrator 28.0.0, SVG Export Plug-In . SVG Version: 6.00 Build 0)  -->
<svg version="1.1" id="Layer_1" xmlns="http://www.w3.org/2000/svg" xmlns:xlink="http://www.w3.org/1999/xlink" x="0px" y="0px"
	 viewBox="0 0 250 250" style="enable-background:new 0 0 250 250;" xml:space="preserve">
<style type="text/css">
	.st0{fill:#FFFDE2;}
	.st1{fill:#DFBF98;}
	.st2{fill:#B3946D;}
	.st3{fill:#DF8835;}
</style>
<g>
	<g>
		<g>
			<g>
				<path class="st0" d="M77.65,151.47c0.07,6.51,19.43,11.77,43.29,11.77c23.87,0,43.22-5.27,43.29-11.77H77.65z"/>
				<path class="st1" d="M164.43,151.48c0,1.28-1.75,2.5-4.82,3.57c-1.31,0.45-2.86,0.88-4.62,1.27h-0.01
					c-7.65,1.72-19.28,2.85-32.38,2.93c-0.51,0.01-1.04,0.01-1.57,0.01c-0.53,0-1.05,0-1.56-0.01c-13.69-0.08-25.76-1.31-33.38-3.16
					c-0.01,0-0.03-0.01-0.03-0.01c-1.35-0.32-2.55-0.67-3.6-1.03c-3.08-1.08-4.82-2.29-4.82-3.57c0-4.31,19.43-7.79,43.39-7.79
					C145.01,143.68,164.43,147.17,164.43,151.48z"/>
				<path class="st2" d="M154.99,156.32L154.99,156.32c-7.66,1.72-19.29,2.85-32.39,2.93c-0.51,0.01-1.04,0.01-1.57,0.01
					c-0.53,0-1.05,0-1.56-0.01c-13.69-0.08-25.76-1.31-33.38-3.16c-0.01,0-0.03-0.01-0.03-0.01c-5.79-4.4,18.18-5.26,34.97-5.26
					S158.92,150.82,154.99,156.32z"/>
			</g>
			<g>
				<path class="st0" d="M164.51,118.36c-1.91,0-3.63,0.47-5.19,1.27c0.07-0.98,0.12-1.96,0.13-2.96H82.46
					c0.08,21.91,17.29,39.65,38.5,39.65c11.04,0,20.98-4.81,28-12.51c1.46,2.47,4.13,4.13,7.2,4.13c1.78,0,21.02-3.79,21.02-15.83
					C177.18,124.53,171.5,118.36,164.51,118.36z M156.08,143.66c-2.11-0.04-3.82-1.69-3.98-3.76c2.97-4.23,5.16-9.08,6.34-14.33
					c1.68-1.74,3.7-2.92,6.07-2.92c4.62,0,8.38,4.25,8.38,9.47C172.9,139.91,158.39,143.39,156.08,143.66z"/>
				<path class="st0" d="M159.51,116.68c-1.83,0.79-5.33,1.84-10.06,2.83h-0.02c-7.16,1.5-17.15,2.85-28.39,2.85
					c-11.6,0-21.61-1.33-28.71-2.84c-0.01-0.01-0.03-0.01-0.05-0.01c-4.69-0.98-8.09-2.04-9.82-2.83c4.35-2,19.29-5.69,38.58-5.69
					C139.71,110.99,154.9,114.68,159.51,116.68z"/>
				<path class="st1" d="M157.13,116.68c-2.03,0.66-4.76,1.37-7.77,2l-0.1,0.02c-0.58,0.12-1.24,0.26-1.96,0.39
					c-5.51,1.05-14.92,2.44-26.26,2.44c-11.76,0-21.21-1.39-26.66-2.44c-0.65-0.12-1.25-0.24-1.79-0.36l-0.13-0.03
					c-3.01-0.63-5.72-1.35-7.71-2.02c5.71-1.95,19.05-4.86,36.29-4.86C137.71,111.82,151.2,114.73,157.13,116.68z"/>
				<path class="st3" d="M147.3,119.09c-5.51,1.05-14.92,2.44-26.26,2.44c-11.76,0-21.21-1.39-26.66-2.44
					c6.92-1.32,16.15-2.42,26.66-2.42C131.21,116.67,140.35,117.77,147.3,119.09z"/>
			</g>
		</g>
		<path class="st0" d="M111.45,107.94c-9.42-5.66-11.81-18.51-3.49-27.07c7.35-7.55,33.22-10.76,19.86-17.64
			c-4.56-2.35-8.84-3.03-13.8-2.75c12.22-2.81,25.21-8.1,34.44,4.1c4.57,6.05,7.38,16.74,1.3,22.8c-5.94,5.92-15.55,2.95-22.87,2.7
			c-9.57-0.33-12.66,5.27-15.16,13.71L111.45,107.94z"/>
	</g>
</g>
</svg>
